<svg xmlns="http://www.w3.org/2000/svg" xmlns:xlink="http://www.w3.org/1999/xlink" preserveAspectRatio="xMidYMid" width="85" height="85" viewBox="0 0 85 85">
  <defs>
    <style>

      .cls-2 {
        fill: #eacd7a;
      }
    </style>
  </defs>
  <path d="M42.506,84.990 C19.072,84.990 0.005,65.929 0.005,42.501 C0.005,19.072 19.072,0.011 42.506,0.011 C65.943,0.011 85.010,19.072 85.010,42.501 C85.010,65.929 65.943,84.990 42.506,84.990 ZM42.506,5.105 C21.880,5.105 5.100,21.881 5.100,42.501 C5.100,63.122 21.880,79.897 42.506,79.897 C63.134,79.897 79.915,63.122 79.915,42.501 C79.915,21.881 63.134,5.105 42.506,5.105 ZM39.432,55.472 C38.955,55.950 38.307,56.219 37.631,56.219 C36.955,56.219 36.308,55.950 35.830,55.473 C35.830,55.473 23.248,42.894 23.248,42.894 C22.253,41.899 22.253,40.287 23.248,39.292 C24.244,38.297 25.857,38.297 26.850,39.292 C26.850,39.292 37.631,50.071 37.631,50.071 C37.631,50.071 58.165,29.528 58.165,29.528 C59.157,28.531 60.771,28.529 61.766,29.527 C62.762,30.520 62.762,32.132 61.767,33.127 C61.767,33.127 39.432,55.472 39.432,55.472 Z" id="path-1" class="cls-2" fill-rule="evenodd"/>
</svg>
