<svg id="39ab4947-9c66-4053-b5f6-1cb160604d31" xmlns="http://www.w3.org/2000/svg" viewBox="0 0 256.62 150">
  <defs>
    <style>
      .\37 8894650-15b7-4179-aa54-ce60352f8f95 {
        fill: #de2910;
      }

      .\30 95bd61b-1101-4057-9ab1-0d3b9051c0bd {
        fill: #ffde00;
      }
    </style>
  </defs>
  <g>
    <rect class="78894650-15b7-4179-aa54-ce60352f8f95" width="256.62" height="150"/>
    <path id="192aa392-2a69-473e-9182-347f08bdcad2" data-name="s" class="095bd61b-1101-4057-9ab1-0d3b9051c0bd" d="M171.33,231.47L186.44,278l-39.55-28.73h48.88L156.23,278Z" transform="translate(-128.69 -214.44)"/>
    <path id="23d8d7ca-ae80-4e9a-aac2-556590af4e23" data-name="s" class="095bd61b-1101-4057-9ab1-0d3b9051c0bd" d="M217.52,223.58l-1.43,16.23-8.38-14,15,6.38-15.88,3.66Z" transform="translate(-128.69 -214.44)"/>
    <path id="d04af348-b7f4-4a74-9fd7-114b3e00619f" data-name="s" class="095bd61b-1101-4057-9ab1-0d3b9051c0bd" d="M237.45,242.64L229.83,257l-2.3-16.13,11.35,11.7-16.05-2.79Z" transform="translate(-128.69 -214.44)"/>
    <path id="d39a6638-5978-4fb3-afcf-b6871d5c18b7" data-name="s" class="095bd61b-1101-4057-9ab1-0d3b9051c0bd" d="M239.35,271.36l-12.83,10L231,265.74,236.58,281l-13.52-9.1Z" transform="translate(-128.69 -214.44)"/>
    <path id="b9c0520c-2ce0-4d49-80b5-eae7666ff9db" data-name="s" class="095bd61b-1101-4057-9ab1-0d3b9051c0bd" d="M217.19,283.42l-0.76,16.28-9-13.61,15.25,5.75L207,296.14Z" transform="translate(-128.69 -214.44)"/>
  </g>
</svg>
